<svg width="16" height="16" viewBox="0 0 16 16" fill="none" xmlns="http://www.w3.org/2000/svg">
<path d="M15.1579 0V1.68421C15.1579 9.79116 10.6333 13.4737 5.05263 13.4737H1.88884C1.74632 14.3081 1.67784 15.1535 1.68421 16H0C0 14.8522 0.0976842 13.8105 0.291368 12.8573C0.0976842 11.7676 0 10.2888 0 8.42105C0 3.77011 3.77011 0 8.42105 0C10.1053 0 11.7895 0.842105 15.1579 0ZM8.42105 1.68421C6.63433 1.68421 4.92079 2.39398 3.65739 3.65739C2.39398 4.92079 1.68421 6.63433 1.68421 8.42105C1.68421 8.72589 1.68674 9.01979 1.69263 9.30189C2.74863 7.63621 4.29558 6.32 6.31916 5.16379L7.15453 6.62568C4.75032 8 3.15537 9.56126 2.33768 11.7895H5.05263C10.1179 11.7895 13.3651 8.44379 13.4712 2.01095C12.3158 2.12295 11.2421 2.05137 9.91747 1.85263C8.94905 1.70695 8.75874 1.68421 8.42105 1.68421Z" fill="white"/>
</svg>
