<svg width="8" height="16" viewBox="0 0 8 16" fill="none" xmlns="http://www.w3.org/2000/svg">
<path d="M8 0V1.6H7.2V12.8C7.2 14.568 5.768 16 4 16C2.232 16 0.8 14.568 0.8 12.8V1.6H0V0H8ZM5.6 6.4H2.4V12.8C2.4 13.2243 2.56857 13.6313 2.86863 13.9314C3.16869 14.2314 3.57565 14.4 4 14.4C4.42435 14.4 4.83131 14.2314 5.13137 13.9314C5.43143 13.6313 5.6 13.2243 5.6 12.8V6.4ZM4.8 10.4C5.01217 10.4 5.21566 10.4843 5.36569 10.6343C5.51571 10.7843 5.6 10.9878 5.6 11.2C5.6 11.4122 5.51571 11.6157 5.36569 11.7657C5.21566 11.9157 5.01217 12 4.8 12C4.58783 12 4.38434 11.9157 4.23431 11.7657C4.08429 11.6157 4 11.4122 4 11.2C4 10.9878 4.08429 10.7843 4.23431 10.6343C4.38434 10.4843 4.58783 10.4 4.8 10.4ZM3.2 8C3.41217 8 3.61566 8.08429 3.76569 8.23431C3.91571 8.38434 4 8.58783 4 8.8C4 9.01217 3.91571 9.21566 3.76569 9.36569C3.61566 9.51571 3.41217 9.6 3.2 9.6C2.98783 9.6 2.78434 9.51571 2.63431 9.36569C2.48429 9.21566 2.4 9.01217 2.4 8.8C2.4 8.58783 2.48429 8.38434 2.63431 8.23431C2.78434 8.08429 2.98783 8 3.2 8ZM5.6 1.6H2.4V4.8H5.6V1.6Z" fill="white"/>
</svg>
