<svg width="110" height="24" viewBox="0 0 110 24" fill="none" xmlns="http://www.w3.org/2000/svg">
<path d="M1.69238 15.048H3.8121V9.99647C3.8121 9.48492 3.85581 8.99469 3.98692 8.5684C4.44583 7.01245 5.82256 5.9041 7.48337 5.9041C9.25344 5.9041 9.58124 7.09771 9.58124 8.61103V15.048H11.701V8.14211C11.701 5.39255 10.4991 4.00711 7.89857 4.00711C5.69144 4.00711 4.29286 5.37124 3.8121 6.41564H3.7684C3.7684 6.41564 3.8121 6.03198 3.8121 5.52044V0H1.69238V15.048Z" fill="black"/>
<path d="M13.308 18.8633C13.308 18.8633 14.204 19.524 15.4496 19.524C17.0011 19.524 18.356 18.6501 19.0334 16.9876L24.2125 4.26289H21.918L19.2301 11.3393C19.0334 11.8935 18.8586 12.6181 18.8586 12.6181H18.8149C18.8149 12.6181 18.6182 11.8721 18.3997 11.318L15.6244 4.26289H13.2424L17.8752 14.9201L17.3289 16.1563C16.9137 17.1368 16.1926 17.7336 15.3403 17.7336C14.6629 17.7336 14.051 17.286 14.051 17.286L13.308 18.8633Z" fill="black"/>
<path d="M25.9993 19.3109H28.119V14.4725C28.119 13.9183 28.0753 13.5347 28.0753 13.5347H28.119C28.119 13.5347 29.0806 15.3038 31.5062 15.3038C34.3908 15.3038 36.5105 13.0871 36.5105 9.65544C36.5105 6.30907 34.6312 4.00711 31.6592 4.00711C28.8839 4.00711 27.9442 5.96804 27.9442 5.96804H27.9005C27.9005 5.96804 27.9442 5.6057 27.9442 5.17941V4.26289H25.9993V19.3109ZM28.0535 9.69807C28.0535 6.9485 29.5832 5.81884 31.244 5.81884C33.0796 5.81884 34.3689 7.33216 34.3689 9.67675C34.3689 12.1279 32.9267 13.5347 31.1784 13.5347C29.1461 13.5347 28.0535 11.6164 28.0535 9.69807Z" fill="black"/>
<path d="M38.2939 9.63412C38.2939 12.9165 40.9599 15.3038 44.2597 15.3038C47.5595 15.3038 50.2255 12.9165 50.2255 9.63412C50.2255 6.37302 47.5595 4.00711 44.2597 4.00711C40.9599 4.00711 38.2939 6.37302 38.2939 9.63412ZM40.4573 9.63412C40.4573 7.39611 42.1837 5.79753 44.2597 5.79753C46.3576 5.79753 48.0621 7.39611 48.0621 9.63412C48.0621 11.8935 46.3576 13.5134 44.2597 13.5134C42.1837 13.5134 40.4573 11.8935 40.4573 9.63412Z" fill="black"/>
<path d="M53.198 11.1048C53.198 14.707 56.017 15.1332 57.4375 15.1332C57.8745 15.1332 58.1804 15.0906 58.1804 15.0906V13.2576C58.1804 13.2576 57.9838 13.3002 57.6778 13.3002C56.8693 13.3002 55.3177 13.0231 55.3177 10.8704V6.07461H57.9838V4.41209H55.3177V1.30018H53.2636V4.41209H51.7557V6.07461H53.198V11.1048Z" fill="black"/>
<path d="M60.5711 15.048H62.6908V9.99647C62.6908 9.48492 62.7345 8.99469 62.8656 8.5684C63.3246 7.01245 64.7013 5.9041 66.3621 5.9041C68.1322 5.9041 68.46 7.09771 68.46 8.61103V15.048H70.5797V8.14211C70.5797 5.39255 69.3778 4.00711 66.7773 4.00711C64.5702 4.00711 63.1716 5.37124 62.6908 6.41564H62.6471C62.6471 6.41564 62.6908 6.03198 62.6908 5.52044V0H60.5711V15.048Z" fill="black"/>
<path d="M72.9734 9.65544C72.9734 12.8526 75.3554 15.3038 78.83 15.3038C81.4741 15.3038 83.1131 13.7691 83.1131 13.7691L82.239 12.2558C82.239 12.2558 80.8623 13.5134 78.9611 13.5134C76.9943 13.5134 75.268 12.3197 75.1587 9.95384H83.2224C83.2224 9.95384 83.2879 9.33572 83.2879 9.05863C83.2879 6.26644 81.6271 4.00711 78.5022 4.00711C75.3554 4.00711 72.9734 6.22381 72.9734 9.65544ZM75.2242 8.39789C75.5302 6.62879 76.8414 5.64832 78.4585 5.64832C79.8789 5.64832 81.0589 6.54353 81.1245 8.39789H75.2242Z" fill="black"/>
<path d="M84.9638 13.7265C84.9638 13.7265 86.4497 15.3038 89.1595 15.3038C91.5852 15.3038 93.1585 13.961 93.1585 12.1705C93.1585 8.63234 87.4768 9.05863 87.4768 7.11902C87.4768 6.18119 88.3728 5.79753 89.2906 5.79753C91.0388 5.79753 92.0222 6.75668 92.0222 6.75668L92.8745 5.20072C92.8745 5.20072 91.7381 4.00711 89.3125 4.00711C87.1053 4.00711 85.3134 5.11546 85.3134 7.07639C85.3134 10.5933 90.9951 10.1883 90.9951 12.1705C90.9951 13.0444 90.0773 13.5134 89.1595 13.5134C87.2364 13.5134 85.9908 12.2558 85.9908 12.2558L84.9638 13.7265Z" fill="black"/>
<path d="M95.6332 2.11013H97.7748V0H95.6332V2.11013ZM95.6551 15.048H97.7748V4.26289H95.6551V15.048Z" fill="black"/>
<path d="M100.201 13.7265C100.201 13.7265 101.687 15.3038 104.397 15.3038C106.822 15.3038 108.396 13.961 108.396 12.1705C108.396 8.63234 102.714 9.05863 102.714 7.11902C102.714 6.18119 103.61 5.79753 104.528 5.79753C106.276 5.79753 107.259 6.75668 107.259 6.75668L108.112 5.20072C108.112 5.20072 106.975 4.00711 104.55 4.00711C102.343 4.00711 100.551 5.11546 100.551 7.07639C100.551 10.5933 106.232 10.1883 106.232 12.1705C106.232 13.0444 105.315 13.5134 104.397 13.5134C102.474 13.5134 101.228 12.2558 101.228 12.2558L100.201 13.7265Z" fill="black"/>
<line x1="72.9863" y1="23" x2="109.408" y2="23" stroke="#62C1F0" stroke-width="2"/>
<line x1="36.2764" y1="23" x2="72.989" y2="23" stroke="#61F291" stroke-width="2"/>
<line y1="23" x2="36.4213" y2="23" stroke="#FFD966" stroke-width="2"/>
</svg>
