<svg width="20" height="17" viewBox="0 0 20 17" fill="none" xmlns="http://www.w3.org/2000/svg">
<path d="M9.52479 9.86068C9.16391 9.86068 8.81781 9.71733 8.56264 9.46215C8.30746 9.20697 8.1641 8.86088 8.1641 8.5C8.1641 8.13912 8.30746 7.79303 8.56264 7.53785C8.81781 7.28267 9.16391 7.13932 9.52479 7.13932C9.88566 7.13932 10.2318 7.28267 10.4869 7.53785C10.7421 7.79303 10.8855 8.13912 10.8855 8.5C10.8855 8.86088 10.7421 9.20697 10.4869 9.46215C10.2318 9.71733 9.88566 9.86068 9.52479 9.86068ZM9.04582 12.5766C9.20457 12.7671 9.36422 12.9522 9.52479 13.129C9.68535 12.9522 9.845 12.768 10.0037 12.5766C9.68447 12.5834 9.3651 12.5834 9.04582 12.5766ZM7.23612 12.4632C6.5395 12.3907 5.84749 12.2793 5.16334 12.1294C5.09531 12.4469 5.0436 12.7553 5.00913 13.051C4.83678 14.487 5.07716 15.3597 5.44273 15.5701C5.8083 15.7815 6.68368 15.5529 7.84207 14.6866C8.08065 14.5079 8.32103 14.3092 8.56233 14.0924C8.09017 13.5745 7.64741 13.0306 7.23612 12.4632ZM13.8862 12.1294C13.2023 12.2803 12.5102 12.3917 11.8135 12.4632C11.4022 13.0306 10.9594 13.5745 10.4872 14.0924C10.7285 14.3101 10.9689 14.5079 11.2075 14.6866C12.3659 15.5529 13.2413 15.7815 13.6068 15.5701C13.9724 15.3597 14.2119 14.487 14.0413 13.051C14.0039 12.7416 13.9524 12.4341 13.8871 12.1294H13.8862ZM15.2016 11.7783C15.725 14.1722 15.4501 16.0781 14.2872 16.7494C13.1242 17.4206 11.3363 16.7058 9.52479 15.0558C7.71326 16.7058 5.92532 17.4197 4.76239 16.7485C3.59946 16.0772 3.3246 14.1722 3.84711 11.7774C1.51217 11.0345 0 9.84254 0 8.5C0 7.15746 1.51217 5.96641 3.84711 5.22166C3.3246 2.82776 3.59946 0.921901 4.76239 0.250631C5.92532 -0.42064 7.71326 0.294173 9.52479 1.94423C11.3363 0.294173 13.1242 -0.419732 14.2872 0.251538C15.4501 0.922809 15.725 2.82776 15.2025 5.22257C17.5374 5.9655 19.0496 7.15746 19.0496 8.5C19.0496 9.84254 17.5374 11.0336 15.2025 11.7783H15.2016ZM8.56142 2.90759C8.33073 2.69878 8.0907 2.50052 7.84207 2.31343C6.68368 1.44712 5.8083 1.21853 5.44273 1.42989C5.07716 1.64034 4.83768 2.51299 5.00822 3.94897C5.04451 4.2456 5.09531 4.55311 5.16243 4.8706C5.84688 4.72069 6.5392 4.60924 7.23612 4.53678C7.667 3.94443 8.11149 3.39925 8.56233 2.90759H8.56142ZM11.8135 4.53678C12.541 4.61298 13.2358 4.72637 13.8862 4.8706C13.9543 4.55311 14.006 4.24469 14.0404 3.94897C14.2128 2.51299 13.9724 1.64034 13.6068 1.42989C13.2413 1.21853 12.3659 1.44712 11.2075 2.31343C10.9586 2.5005 10.7182 2.69876 10.4872 2.90759C10.9381 3.39925 11.3826 3.94443 11.8135 4.53678ZM10.0037 4.42339C9.845 4.2329 9.68535 4.04784 9.52479 3.87095C9.36422 4.04784 9.20457 4.23199 9.04582 4.42339C9.3651 4.41662 9.68447 4.41662 10.0037 4.42339ZM6.23374 10.9529C6.06825 10.6799 5.90856 10.4035 5.75478 10.1237C5.66861 10.3569 5.58878 10.5864 5.51621 10.8141C5.74934 10.8649 5.98882 10.9111 6.23284 10.9529H6.23374ZM7.98631 11.1651C9.01055 11.2412 10.039 11.2412 11.0633 11.1651C11.6413 10.316 12.1555 9.42519 12.6017 8.5C12.1555 7.57481 11.6413 6.68399 11.0633 5.83488C10.039 5.7588 9.01055 5.7588 7.98631 5.83488C7.40828 6.68399 6.89405 7.57481 6.44783 8.5C6.89405 9.42519 7.40828 10.316 7.98631 11.1651ZM13.2948 6.87625C13.381 6.64312 13.4608 6.41362 13.5334 6.18593C13.2955 6.13433 13.0566 6.08805 12.8167 6.04714C12.9819 6.3201 13.1413 6.59653 13.2948 6.87625ZM4.19998 6.53789C3.89156 6.63768 3.59946 6.74653 3.32551 6.86446C1.99658 7.43413 1.36068 8.07819 1.36068 8.5C1.36068 8.92181 1.99567 9.56587 3.32551 10.1355C3.59946 10.2535 3.89156 10.3623 4.19998 10.4621C4.40136 9.82712 4.65082 9.16855 4.94835 8.5C4.66245 7.86045 4.4126 7.20539 4.19998 6.53789ZM5.5153 6.18593C5.58878 6.41271 5.66861 6.64312 5.75478 6.87534C5.90857 6.59592 6.06826 6.31979 6.23374 6.04714C5.98882 6.08887 5.74934 6.13513 5.51621 6.18593H5.5153ZM14.8496 10.4621C15.158 10.3623 15.4501 10.2535 15.7241 10.1355C17.053 9.56587 17.6889 8.92181 17.6889 8.5C17.6889 8.07819 17.0539 7.43413 15.7241 6.86446C15.4377 6.74245 15.1459 6.63348 14.8496 6.53789C14.6482 7.17288 14.3988 7.83145 14.1012 8.5C14.3988 9.16855 14.6482 9.82621 14.8496 10.4621ZM13.5343 10.8141C13.4593 10.5826 13.3794 10.3528 13.2948 10.1247C13.141 10.4041 12.9813 10.6802 12.8158 10.9529C13.0607 10.9111 13.3002 10.8649 13.5334 10.8141H13.5343Z" fill="white"/>
</svg>
